<svg xmlns="http://www.w3.org/2000/svg" width="1024" height="396" viewBox="0 0 2048 792" role="img" aria-labelledby="title desc">
  <title id="title">Maximum Restoration habitat attention</title>
  <desc id="desc">Restored acreage for scenarios that prioritize forests, meadows, or floodplains.</desc>
  <style>
    text { font-family: "Nunito Sans", Arial, sans-serif; }
    .heading { font-family: "Hammersmith One", Arial, sans-serif; font-size: 32px; font-weight: 700; }
    .caption { font-size: 27px; font-weight: 400; }
    .row-title { font-family: "Hammersmith One", Arial, sans-serif; font-size: 28px; font-weight: 700; letter-spacing: 6px; }
    .value { font-size: 27px; font-weight: 500; }
  </style>
  <rect width="2048" height="792" fill="#26373c"/>
  <rect x="8" y="7" width="2032" height="778" rx="14" fill="none" stroke="#9ba2a4" stroke-opacity=".20" stroke-width="2"/>
  <path d="M 8 134 H 2040" stroke="#9ba2a4" stroke-opacity=".20" stroke-width="2"/>
  <path d="M 22 7 H 2026 Q 2040 7 2040 21 V 134 H 8 V 21 Q 8 7 22 7 Z" fill="#4a595d" fill-opacity=".42"/>
  <text x="38" y="58" class="heading" fill="#fff">MAXIMUM RESTORATION</text>
  <text x="38" y="96" class="caption" fill="#c5cacc">Placeholder caption</text>
  
        <g>
          <text x="38" y="188" class="row-title" fill="#4fb06f">PRIORITIZE FORESTS</text>
          <rect x="38.00" y="222" width="1905.29" height="44" fill="#4fb06f" stroke="#9ba2a4" stroke-opacity=".42"/><rect x="1943.29" y="222" width="31.45" height="44" fill="#d8bf42" stroke="#9ba2a4" stroke-opacity=".42"/><rect x="1974.74" y="222" width="17.26" height="44" fill="#62b6d9" stroke="#9ba2a4" stroke-opacity=".42"/>
          <rect x="38" y="280" width="379" height="50" rx="25" fill="none" stroke="#4fb06f" stroke-width="2"/>
               <text x="54" y="312" class="value" fill="#4fb06f">Forests – 7,020,000 acres</text><text x="695.3333333333334" y="312" class="value" fill="#d8bf42">Meadows – 115,864 acres</text><text x="1352.6666666666667" y="312" class="value" fill="#62b6d9">Floodplains – 63,600 acres</text>
          <line x1="38" y1="349" x2="2010" y2="349" stroke="#9ba2a4" stroke-opacity=".18"/>
        </g>
        <g>
          <text x="38" y="403" class="row-title" fill="#d8bf42">PRIORITIZE MEADOWS</text>
          <rect x="38.00" y="437" width="1207.30" height="44" fill="#4fb06f" stroke="#9ba2a4" stroke-opacity=".42"/><rect x="1245.30" y="437" width="94.34" height="44" fill="#d8bf42" stroke="#9ba2a4" stroke-opacity=".42"/><rect x="1339.64" y="437" width="17.26" height="44" fill="#62b6d9" stroke="#9ba2a4" stroke-opacity=".42"/>
          <text x="38" y="527" class="value" fill="#4fb06f">Forests – 4,448,273 acres</text><rect x="695.3333333333334" y="495" width="350.59999999999997" height="50" rx="25" fill="none" stroke="#d8bf42" stroke-width="2"/>
               <text x="711.3333333333334" y="527" class="value" fill="#d8bf42">Meadows – 347,591 acres</text><text x="1352.6666666666667" y="527" class="value" fill="#62b6d9">Floodplains – 63,600 acres</text>
          <line x1="38" y1="564" x2="2010" y2="564" stroke="#9ba2a4" stroke-opacity=".18"/>
        </g>
        <g>
          <text x="38" y="618" class="row-title" fill="#62b6d9">PRIORITIZE FLOODPLAINS</text>
          <rect x="38.00" y="652" width="1270.19" height="44" fill="#4fb06f" stroke="#9ba2a4" stroke-opacity=".42"/><rect x="1308.19" y="652" width="12.58" height="44" fill="#d8bf42" stroke="#9ba2a4" stroke-opacity=".42"/><rect x="1320.77" y="652" width="82.34" height="44" fill="#62b6d9" stroke="#9ba2a4" stroke-opacity=".42"/>
          <text x="38" y="742" class="value" fill="#4fb06f">Forests – 4,680,000 acres</text><text x="695.3333333333334" y="742" class="value" fill="#d8bf42">Meadows – 46,345 acres</text><rect x="1352.6666666666667" y="710" width="407.4" height="50" rx="25" fill="none" stroke="#62b6d9" stroke-width="2"/>
               <text x="1368.6666666666667" y="742" class="value" fill="#62b6d9">Floodplains – 303,372 acres</text>
          
        </g>
</svg>